<?xml version="1.0" standalone="no"?>
<!DOCTYPE svg PUBLIC "-//W3C//DTD SVG 20010904//EN"
 "http://www.w3.org/TR/2001/REC-SVG-20010904/DTD/svg10.dtd">
<svg version="1.0" xmlns="http://www.w3.org/2000/svg"
 width="512.000000pt" height="512.000000pt" viewBox="0 0 512.000000 512.000000"
 preserveAspectRatio="xMidYMid meet">
<metadata>
Created by potrace 1.14, written by Peter Selinger 2001-2017
</metadata>
<g transform="translate(0.000000,512.000000) scale(0.100000,-0.100000)"
fill="#000000" stroke="none">
<path d="M2378 5116 c-1 -2 -34 -6 -73 -10 -38 -3 -97 -10 -130 -16 -33 -6
-76 -13 -95 -16 -70 -11 -305 -75 -399 -110 -121 -44 -372 -167 -471 -231 -80
-50 -211 -142 -220 -153 -3 -3 -15 -13 -27 -21 -36 -25 -171 -150 -244 -225
-362 -375 -602 -851 -684 -1359 -2 -11 -6 -36 -9 -55 -22 -131 -29 -533 -12
-645 47 -292 88 -454 160 -638 169 -432 424 -778 801 -1086 309 -252 789 -464
1174 -517 20 -3 79 -11 131 -18 89 -12 496 -14 560 -2 14 2 45 7 70 10 347 51
683 170 981 351 87 52 274 188 343 250 252 221 457 484 606 775 121 239 213
517 246 750 2 19 6 44 9 55 19 95 27 458 13 605 -21 205 -71 430 -136 605 -52
141 -72 187 -132 305 -212 414 -529 760 -930 1014 -248 156 -620 301 -880 341
-19 3 -42 8 -50 10 -8 2 -39 7 -69 10 -30 4 -63 9 -75 12 -23 5 -452 13 -458
9z m457 -381 c22 -4 49 -8 60 -10 11 -1 25 -3 30 -5 6 -1 -22 -10 -62 -20
-313 -81 -444 -318 -358 -645 44 -168 129 -301 303 -473 131 -130 246 -207
537 -362 170 -90 220 -178 260 -465 6 -38 21 -122 31 -173 10 -50 49 -140 82
-190 77 -118 183 -191 307 -211 267 -44 272 -48 350 -241 56 -140 106 -202
172 -215 18 -3 33 -9 33 -13 0 -4 -27 -62 -60 -129 -167 -340 -429 -635 -758
-853 -151 -101 -336 -193 -482 -240 -30 -10 -63 -21 -73 -25 -16 -7 -15 -1 8
46 63 126 131 207 260 314 112 92 146 139 147 204 2 132 -181 193 -647 216
-300 16 -370 79 -390 352 -15 205 -31 277 -81 352 -48 72 -174 141 -289 156
-22 3 -53 7 -70 10 -16 3 -77 7 -135 10 -203 10 -251 17 -445 61 -11 3 -59 7
-106 11 -191 13 -253 -40 -409 -348 -157 -311 -209 -400 -281 -486 l-27 -31
-60 101 c-84 143 -133 244 -180 377 -35 100 -75 234 -86 296 -2 10 -7 39 -12
64 -4 25 -8 47 -9 50 -1 3 -5 34 -9 70 -4 36 -9 77 -12 91 -4 23 1 29 48 54
29 15 70 41 90 56 73 58 121 72 222 65 277 -19 324 -19 378 -1 66 21 102 47
138 97 47 64 62 135 64 298 4 257 35 281 384 295 84 4 161 8 170 10 10 2 45 6
77 10 96 12 204 58 251 107 51 54 63 79 71 158 9 90 -50 166 -172 225 -73 35
-171 68 -238 79 -60 11 -163 23 -257 31 -122 10 -155 13 -205 20 -83 12 -197
52 -258 93 -58 38 -138 109 -136 121 0 5 109 104 194 176 62 53 268 185 372
238 224 114 510 202 728 222 39 4 72 9 74 11 7 7 419 -4 466 -11z"/>
</g>
</svg>
